<?xml version="1.0" encoding="utf-8"?>
<!-- Generator: Adobe Illustrator 24.0.0, SVG Export Plug-In . SVG Version: 6.00 Build 0)  -->
<svg version="1.1" id="Calque_1" xmlns="http://www.w3.org/2000/svg" xmlns:xlink="http://www.w3.org/1999/xlink" x="0px" y="0px"
	 viewBox="0 0 349.9 237.3" style="enable-background:new 0 0 349.9 237.3;" xml:space="preserve">
<style type="text/css">
	.st0{fill:#9DBC1C;}
	.st1{fill:#CBCACB;}
	.st2{fill:#FFFFFF;}
</style>
<rect x="238.2" y="82.1" class="st0" width="3.5" height="3.5"/>
<rect x="238.2" y="77.3" class="st0" width="2.9" height="2.9"/>
<rect x="238.2" y="73.1" class="st0" width="1.2" height="1.2"/>
<rect x="238.2" y="67.8" class="st0" width="1.7" height="1.7"/>
<rect x="238.2" y="62.8" class="st0" width="1" height="1"/>
<rect x="271.8" y="94.5" class="st0" width="0.9" height="0.9"/>
<rect x="243.1" y="92.1" class="st0" width="3.5" height="3.5"/>
<rect x="243.2" y="87.1" class="st0" width="3.3" height="3.3"/>
<rect x="238.2" y="92.1" class="st0" width="3.5" height="3.5"/>
<rect x="238.2" y="87.1" class="st0" width="3.3" height="3.3"/>
<rect x="243.2" y="82.3" class="st0" width="2.8" height="2.8"/>
<rect x="243.2" y="77.7" class="st0" width="2" height="2"/>
<rect x="243.2" y="67.8" class="st0" width="1.6" height="1.6"/>
<rect x="247.8" y="92.1" class="st0" width="3.5" height="3.5"/>
<polygon class="st0" points="248.1,87.4 248.1,90.2 251,90.2 251,87.4 "/>
<rect x="248.2" y="77.4" class="st0" width="2.7" height="2.7"/>
<rect x="252.7" y="92.3" class="st0" width="3.2" height="3.2"/>
<rect x="253.4" y="88.4" class="st0" width="1.8" height="1.8"/>
<polygon class="st0" points="252.8,82.3 252.8,85.2 255.8,85.2 255.8,82.3 "/>
<rect x="253.6" y="78" class="st0" width="1.4" height="1.4"/>
<rect x="253.1" y="72.5" class="st0" width="2.3" height="2.3"/>
<rect x="257.5" y="92.5" class="st0" width="3.1" height="3.1"/>
<rect x="257.9" y="88" class="st0" width="2.2" height="2.2"/>
<polygon class="st0" points="258.3,68 258.3,69.3 259.6,69.3 259.7,68 "/>
<rect x="262.3" y="92.7" class="st0" width="2.8" height="2.8"/>
<polygon class="st0" points="262.9,88.6 262.9,90.2 264.5,90.2 264.5,88.6 "/>
<rect x="262.8" y="77.8" transform="matrix(2.125342e-03 -1 1 2.125342e-03 184.4585 342.2551)" class="st0" width="1.9" height="1.9"/>
<rect x="267.4" y="93.4" class="st0" width="2.1" height="2.1"/>
<rect x="267.3" y="67.5" class="st0" width="2.3" height="2.3"/>
<rect x="272.4" y="83" class="st0" width="1.5" height="1.5"/>
<path class="st1" d="M103.9,75.2c0.6,0,1.1,0.2,1.5,0.6c0.4,0.4,0.6,0.9,0.6,1.6c0,0.6-0.2,1.1-0.6,1.5c-0.4,0.4-0.9,0.6-1.4,0.7
	h-9.2c-0.9,0.1-1.7,0.3-2.2,0.7c-0.6,0.4-1.1,0.8-1.4,1.4c-0.3,0.6-0.6,1.1-0.7,1.8c-0.1,0.6-0.2,1.2-0.2,1.7v7.7
	c0,0.6-0.2,1.1-0.6,1.5c-0.4,0.4-0.9,0.6-1.5,0.6c-0.6,0-1.1-0.2-1.5-0.6C86.2,94,86,93.5,86,92.9v-7.7c0-0.9,0.1-1.9,0.4-2.8
	c0.2-1,0.6-1.9,1.1-2.7H72.6c-0.6,0-1.1-0.2-1.5-0.6c-0.4-0.4-0.6-1-0.6-1.5c0-0.6,0.2-1.1,0.6-1.6c0.4-0.4,0.9-0.6,1.5-0.6H103.9z"
	/>
<path class="st1" d="M134.2,89c0.9,0.6,1.7,1.2,2.6,1.9c0.3,0.2,0.6,0.5,0.9,0.8c0.2,0.3,0.4,0.7,0.4,1.1c0,0.6-0.2,1.1-0.6,1.5
	c-0.4,0.4-0.9,0.6-1.5,0.6c-0.5,0-1-0.2-1.5-0.6c-1.2-0.9-2.5-1.8-3.8-2.6c-1.3-0.8-2.7-1.6-4.1-2.3c-1.4-0.7-2.9-1.2-4.4-1.6
	c-1.5-0.4-3.1-0.6-4.7-0.6h-9.1c-0.4,0.1-0.7,0.2-1,0.5c-0.3,0.3-0.4,0.7-0.4,1.1v3.9c0,0.6-0.2,1.1-0.7,1.5c-0.4,0.4-1,0.6-1.5,0.6
	c-0.6,0-1.1-0.2-1.5-0.6c-0.4-0.4-0.6-0.9-0.6-1.5v-4.4c0-0.7,0.2-1.5,0.4-2.2c0.3-0.7,0.7-1.3,1.2-1.8c0.5-0.5,1.1-0.9,1.7-1.2
	c0.7-0.3,1.4-0.4,2.2-0.4h24.1c0.5,0,0.9-0.2,1.2-0.5c0.3-0.3,0.5-0.7,0.5-1.2c0-0.5-0.2-0.8-0.5-1.2c-0.4-0.3-0.8-0.5-1.2-0.5
	h-27.5c-0.6,0-1.1-0.2-1.5-0.6c-0.4-0.4-0.6-1-0.6-1.5c0-0.6,0.2-1.1,0.6-1.6c0.4-0.4,0.9-0.6,1.5-0.6h27.3c0.9,0,1.6,0.2,2.4,0.5
	c0.7,0.3,1.4,0.8,2,1.3c0.6,0.5,1,1.2,1.3,1.9c0.3,0.7,0.5,1.5,0.5,2.4c0,0.9-0.2,1.6-0.5,2.4c-0.3,0.7-0.8,1.4-1.3,1.9
	c-0.6,0.5-1.2,1-2,1.3c-0.7,0.3-1.5,0.5-2.4,0.5h-0.2C132.5,87.9,133.3,88.4,134.2,89"/>
<path class="st1" d="M201,92.9c0,0.6-0.2,1.1-0.6,1.5c-0.4,0.4-0.9,0.6-1.5,0.6c-0.6,0-1.1-0.2-1.5-0.6c-0.4-0.4-0.6-0.9-0.6-1.5V83
	c0-1.3-0.1-1.9-0.2-1.9c-0.1,0-0.5,0.4-1.3,1.2l-10,11.4c-0.4,0.5-0.9,0.8-1.5,1c-0.6,0.2-1.2,0.3-1.9,0.3c-0.7,0-1.3-0.1-1.9-0.3
	c-0.6-0.2-1.1-0.6-1.5-1l-10-11.4c-0.7-0.8-1.1-1.2-1.3-1.2c-0.1,0-0.2,0.6-0.2,1.9v9.9c0,0.6-0.2,1.1-0.6,1.5
	c-0.4,0.4-0.9,0.6-1.5,0.6c-0.6,0-1.1-0.2-1.6-0.6c-0.4-0.4-0.6-0.9-0.6-1.5V79.6c0-1.2,0.3-2.2,1.1-3.1c0.7-0.8,1.6-1.3,2.9-1.3
	c0.7,0,1.4,0.2,2,0.5c0.6,0.4,1.1,0.8,1.6,1.3L180.6,89c0.2,0.2,0.3,0.3,0.6,0.5c0.2,0.2,0.5,0.2,0.7,0.2c0.2,0,0.5-0.1,0.7-0.2
	c0.2-0.2,0.4-0.3,0.6-0.5l10.4-11.9h0c0.4-0.6,0.9-1,1.5-1.4c0.6-0.3,1.3-0.5,2-0.5c1.2,0,2.2,0.4,2.9,1.3c0.7,0.9,1.1,1.9,1.1,3.1
	V92.9z"/>
<path class="st1" d="M138.2,94.7c-0.5,0.6-1,0.8-1.7,0.8c-0.6,0-1.1-0.2-1.5-0.6c-0.4-0.4-0.6-0.9-0.6-1.5c0-0.5,0.2-1,0.5-1.3
	l11.1-14.9c0.5-0.7,1.2-1.3,2-1.7c0.8-0.4,1.8-0.7,2.7-0.7c0.9,0,1.8,0.2,2.6,0.6c0.8,0.4,1.5,0.9,2,1.6l11.1,14.8
	c0.2,0.2,0.3,0.4,0.5,0.7c0.1,0.3,0.2,0.5,0.2,0.8c0,0.6-0.2,1.1-0.6,1.5c-0.4,0.4-0.9,0.6-1.5,0.6c-0.7,0-1.3-0.3-1.7-0.9
	l-10.6-14.2c-0.2-0.2-0.5-0.5-0.8-0.8c-0.3-0.3-0.7-0.4-1-0.4c-0.3,0-0.7,0.1-1,0.4c-0.3,0.3-0.6,0.6-0.7,0.8L138.2,94.7z"/>
<path class="st0" d="M154.8,87.4c0,1-1,1.8-2.3,1.8H149c-1.3,0-2.3-0.8-2.3-1.8c0-1,1-1.8,2.3-1.8h3.5
	C153.8,85.6,154.8,86.4,154.8,87.4"/>
<path class="st1" d="M84.7,101.6c0,1.2-0.3,2.5-1,3.8c-0.7,1.2-1.5,2.2-2.5,3c-1.1,0.9-2.3,1.3-3.5,1.3c-0.4,0-0.8-0.2-1.1-0.7
	c-0.1-0.2-0.3-0.6-0.5-1.3c-0.4,0.2-1,0.6-1.7,1.2c-0.8,0.7-1.4,1.1-1.7,1.3c-0.7,0.4-1.3,0.6-1.9,0.6c-0.4,0-0.7-0.2-0.8-0.5
	c0.1-0.3,0.6-1.2,1.6-2.8c0.8-1.2,1.4-2.1,2-2.8c0.8-1.2,1.3-1.8,1.5-1.8c0.3,0.2,0.5,0.4,0.5,0.8c0,0.2-0.4,0.8-1.1,1.6
	c-1.1,1.4-1.8,2.1-2,2.4c-0.7,1-1.1,1.7-1.1,2.2c1-0.3,2-0.9,3-1.8c0.6-0.6,1.3-1.3,2-2.2c0.6-0.8,1-1.2,1-1.2
	c0.2,0.2,0.3,0.5,0.3,0.8c0,0.3-0.1,0.6-0.2,1c-0.3,0.8-0.5,1.3-0.5,1.6c0,0.3,0.1,0.5,0.2,0.7c0.2,0.2,0.4,0.3,0.6,0.3
	c0.3,0,0.7-0.1,1-0.3c0.9-0.5,1.7-1,2.1-1.4c0.7-0.6,1.3-1.2,1.8-1.8c0.7-1.1,1.1-2.4,1.1-3.8c0-0.3-0.1-0.6-0.2-0.9
	c-0.1-0.3-0.3-0.5-0.6-0.5c-0.2,0-0.5,0.2-1.1,0.6v-0.3c0-0.3,0.1-0.6,0.3-0.7c0.2-0.2,0.5-0.3,0.8-0.3c0.5,0,0.8,0.3,1.1,0.8
	C84.6,100.6,84.7,101.1,84.7,101.6"/>
<path class="st1" d="M91.7,106.4c-0.3-0.3-0.7-0.5-1.1-0.5c-0.3,0-0.6,0.1-0.8,0.2c0,0-0.3,0.2-0.8,0.4c0.3,0.5,0.7,0.7,1.2,0.7
	C90.8,107.2,91.3,106.9,91.7,106.4 M93.2,109.2c-0.3,0.3-1,0.6-2.1,0.7c-0.8,0.1-1.6,0.2-2.4,0.2c-1.7,0-2.5-0.5-2.5-1.4
	c0-1.2,0.9-2.2,2.6-3c0.6-0.3,1.2-0.5,1.9-0.7c0.6,0.1,1.1,0.3,1.3,0.3c0.4,0.1,0.7,0.5,0.7,1.1c0,0.5-0.3,0.9-1,1.2
	c-0.6,0.3-1.1,0.4-1.7,0.4c-0.9,0-1.6-0.1-2-0.4c-0.5,0.2-0.7,0.5-0.7,0.9c0,0.7,0.6,1,1.8,1c0.4,0,1,0,1.6-0.1
	C92,109.3,92.8,109.2,93.2,109.2"/>
<path class="st1" d="M109.7,110.6L109.7,110.6L109.7,110.6L109.7,110.6L109.7,110.6v-0.2h0.1v0h0v0h0L109.7,110.6L109.7,110.6z
	 M109.2,105.3c0-0.4-0.3-0.5-0.9-0.5c-0.9,0-1.6,0.2-2.2,0.6c-0.5,0.4-1.1,0.9-1.7,1.5c-0.8,0.8-1.1,1.4-1.1,1.9
	c0,0.3,0.1,0.5,0.3,0.6c0.2,0.1,0.5,0.2,0.8,0.2c0.9,0,1.6-0.3,2.2-0.9c0.1-0.2,0.6-0.7,1.3-1.7c0.4-0.6,0.8-0.9,1.2-0.9
	C109.1,105.8,109.2,105.6,109.2,105.3 M109.7,110.3c-0.2,0.5-0.5,0.7-0.8,0.7c-0.3,0-0.7-0.3-1.1-0.7c-0.3-0.4-0.6-0.8-0.8-1.2
	c-0.8,0.4-1.4,0.7-1.7,0.8c-0.7,0.3-1.3,0.4-1.8,0.4c-0.8,0-1.2-0.4-1.2-1.2c0-1.3,0.7-2.4,2.1-3.4c0.5-0.3,1.1-0.7,1.8-1.1
	c0.9-0.4,1.6-0.7,2-0.7c0.3,0,0.5,0.1,0.8,0.4c0.2,0.3,0.4,0.6,0.4,0.8c0,0.5-0.2,1.3-0.6,2.1c-0.4,0.9-0.6,1.4-0.6,1.5
	c0,0.5,0.1,0.8,0.2,1C108.5,110,108.9,110.2,109.7,110.3"/>
<path class="st1" d="M117.3,106.8L115,106c-0.6,0-1.1,0.4-1.5,1.2c-0.2,0.3-0.4,0.9-0.8,1.9c-0.4,1-1,1.5-1.8,1.5
	c0.1-0.4,0.3-1,0.8-1.7c0.5-0.8,0.8-1.3,0.9-1.7c0.1-0.3,0.1-0.8,0.2-1.5c0-0.3,0.1-0.6,0.2-0.9c0.2-0.4,0.4-0.7,0.6-0.7l0.3,0
	l0.1,1c0.1,0.3,0.3,0.4,0.7,0.4h0.5c0.1,0,0.2,0,0.2,0C116.5,105.5,117.2,105.9,117.3,106.8"/>
<path class="st1" d="M124.7,106.4c-0.3-0.3-0.7-0.5-1.1-0.5c-0.3,0-0.6,0.1-0.8,0.2c0,0-0.3,0.2-0.8,0.4c0.3,0.5,0.7,0.7,1.2,0.7
	C123.8,107.2,124.3,106.9,124.7,106.4 M126.2,109.2c-0.3,0.3-1,0.6-2.1,0.7c-0.8,0.1-1.6,0.2-2.4,0.2c-1.7,0-2.5-0.5-2.5-1.4
	c0-1.2,0.9-2.2,2.6-3c0.6-0.3,1.2-0.5,1.9-0.7c0.6,0.1,1.1,0.3,1.3,0.3c0.4,0.1,0.7,0.5,0.7,1.1c0,0.5-0.3,0.9-1,1.2
	c-0.6,0.3-1.1,0.4-1.7,0.4c-0.9,0-1.6-0.1-2-0.4c-0.5,0.2-0.7,0.5-0.7,0.9c0,0.7,0.6,1,1.8,1c0.4,0,1,0,1.6-0.1
	C124.9,109.3,125.8,109.2,126.2,109.2"/>
<path class="st1" d="M144.6,105.6c0,0.5-0.3,1.2-0.9,2.4c-0.6,1.1-0.9,1.9-0.9,2.2c0,0.3,0.1,0.6,0.2,0.8c-0.4,0.2-0.6,0.3-0.8,0.3
	c-0.4,0-0.5-0.2-0.5-0.6c0-0.4,0.3-1.2,0.9-2.4c0.6-1.2,0.9-2,0.9-2.5c0,0,0-0.2,0-0.3c0-0.1,0-0.2,0-0.3c-1.5,0.2-2.9,0.7-4.2,1.7
	c-1.4,1-2.4,2.1-2.9,3.4c-0.2-0.1-0.5-0.2-1-0.2c0-0.2,0.4-0.7,1-1.6c0.2-0.3,0.9-1.1,1.9-2.5c0.8-1,1.2-1.7,1.4-2
	c0.1-0.1,0.4-0.8,0.9-2.1c0.4-0.9,0.7-1.5,1.1-1.8c0.1,0.1,0.2,0.1,0.4,0.2c0.1,0.1,0.2,0.2,0.2,0.3c0,0.1-0.8,1.9-2.5,5.3
	c0.8-0.4,1.5-0.7,2.2-0.9c1.2-0.5,1.9-0.7,2-0.7c0.2,0,0.3,0,0.4,0.1C144.5,104.8,144.6,105.2,144.6,105.6"/>
<path class="st1" d="M151.9,106.4c-0.3-0.3-0.6-0.5-1.1-0.5c-0.3,0-0.6,0.1-0.8,0.2c0,0-0.3,0.2-0.8,0.4c0.3,0.5,0.7,0.7,1.2,0.7
	C151,107.2,151.5,106.9,151.9,106.4 M153.4,109.2c-0.3,0.3-1,0.6-2.1,0.7c-0.8,0.1-1.6,0.2-2.4,0.2c-1.7,0-2.5-0.5-2.5-1.4
	c0-1.2,0.9-2.2,2.6-3c0.6-0.3,1.2-0.5,1.9-0.7c0.6,0.1,1,0.3,1.3,0.3c0.4,0.1,0.7,0.5,0.7,1.1c0,0.5-0.3,0.9-1,1.2
	c-0.6,0.3-1.1,0.4-1.7,0.4c-0.9,0-1.6-0.1-2-0.4c-0.5,0.2-0.7,0.5-0.7,0.9c0,0.7,0.6,1,1.8,1c0.4,0,1,0,1.6-0.1
	C152.2,109.3,153,109.2,153.4,109.2"/>
<path class="st1" d="M161.6,106.8l-2.3-0.8c-0.6,0-1.1,0.4-1.5,1.2c-0.2,0.3-0.4,0.9-0.8,1.9c-0.4,1-1,1.5-1.8,1.5
	c0-0.4,0.3-1,0.8-1.7c0.5-0.8,0.8-1.3,0.9-1.7c0.1-0.3,0.1-0.8,0.2-1.5c0-0.3,0.1-0.6,0.2-0.9c0.2-0.4,0.4-0.7,0.6-0.7l0.3,0l0.2,1
	c0.1,0.3,0.3,0.4,0.7,0.4h0.5c0.1,0,0.2,0,0.2,0C160.8,105.5,161.4,105.9,161.6,106.8"/>
<path class="st1" d="M168.9,106.4c-0.3-0.3-0.7-0.5-1.1-0.5c-0.3,0-0.6,0.1-0.8,0.2c0,0-0.3,0.2-0.8,0.4c0.3,0.5,0.7,0.7,1.2,0.7
	C168.1,107.2,168.6,106.9,168.9,106.4 M170.5,109.2c-0.3,0.3-1,0.6-2.1,0.7c-0.8,0.1-1.6,0.2-2.4,0.2c-1.7,0-2.5-0.5-2.5-1.4
	c0-1.2,0.9-2.2,2.6-3c0.6-0.3,1.2-0.5,1.9-0.7c0.6,0.1,1.1,0.3,1.3,0.3c0.4,0.1,0.7,0.5,0.7,1.1c0,0.5-0.3,0.9-1,1.2
	c-0.6,0.3-1.1,0.4-1.7,0.4c-0.9,0-1.6-0.1-2-0.4c-0.5,0.2-0.7,0.5-0.7,0.9c0,0.7,0.6,1,1.8,1c0.4,0,1,0,1.6-0.1
	C169.2,109.3,170.1,109.2,170.5,109.2"/>
<path class="st1" d="M176.1,109.2c0,0.2-0.1,0.3-0.1,0.5c0,0.1-0.1,0.2-0.3,0.3c-0.3,0.1-0.4,0.1-0.4,0.1c-0.3,0.2-0.5,0.3-0.5,0.3
	c-0.1,0-0.2-0.1-0.3-0.3c-0.1-0.2-0.1-0.3-0.1-0.5c0-0.4,0.3-0.5,0.8-0.5C175.5,109.1,175.8,109.1,176.1,109.2"/>
<path class="st1" d="M194.4,109.3l0,0.3c-0.1,0.1-0.2,0.2-0.3,0.2c-0.3,0.2-0.5,0.3-0.5,0.3h-0.2c0,0-0.5-0.1-1.5-0.2
	c-0.5-0.1-0.8-0.1-1-0.1c-0.4,0-0.9,0-1.4,0.2c-1.2,0.2-2,0.3-2.3,0.3c-0.7,0-1-0.2-1-0.5c0-0.2,0.2-0.4,0.5-0.9
	c0.1-0.1,0.3-0.4,0.6-0.8c1.5-2.1,2.7-4.4,3.5-7c0.3-0.9,0.6-1.4,0.9-1.4c0.1,0,0.3,0.1,0.4,0.3c0.1,0.2,0.2,0.3,0.2,0.5
	c0,0.2-0.3,0.9-0.9,2.2c-0.4,0.8-1,2-1.9,3.7l-1.4,2.6c0.6,0.1,1.3,0.2,2.1,0.2c0.5,0,1.2,0,2.1-0.1c0.9-0.1,1.6-0.1,2.1-0.1
	L194.4,109.3z"/>
<path class="st1" d="M201.7,106.4c-0.3-0.3-0.7-0.5-1.1-0.5c-0.3,0-0.6,0.1-0.8,0.2c0,0-0.3,0.2-0.8,0.4c0.3,0.5,0.7,0.7,1.2,0.7
	C200.8,107.2,201.3,106.9,201.7,106.4 M203.2,109.2c-0.3,0.3-1,0.6-2.1,0.7c-0.8,0.1-1.6,0.2-2.4,0.2c-1.7,0-2.5-0.5-2.5-1.4
	c0-1.2,0.9-2.2,2.6-3c0.6-0.3,1.2-0.5,1.9-0.7c0.6,0.1,1.1,0.3,1.3,0.3c0.4,0.1,0.7,0.5,0.7,1.1c0,0.5-0.3,0.9-1,1.2
	c-0.6,0.3-1.1,0.4-1.7,0.4c-0.9,0-1.6-0.1-2-0.4c-0.5,0.2-0.7,0.5-0.7,0.9c0,0.7,0.6,1,1.8,1c0.4,0,1,0,1.6-0.1
	C202,109.3,202.9,109.2,203.2,109.2"/>
<path class="st1" d="M211.9,101.3c0,0.2-0.1,0.5-0.2,0.8c-0.1,0.1-0.4,0.5-0.9,1.3c0.2,0.2,0.5,0.3,0.8,0.5c0.3,0.2,0.4,0.5,0.4,0.8
	l0,0.2c0,0-0.2-0.1-0.7-0.2c-0.3-0.1-0.5-0.1-0.7-0.1c-0.5,0-1.3,0.6-2.3,1.7c-1,1.1-1.5,2-1.5,2.6c0,0.5,0.4,0.8,1.3,1.1
	c0.6,0.1,1.2,0.2,1.9,0.2c0.3,0,0.5,0,0.8-0.1c0,0.1,0,0.1,0.1,0.3c-0.6,0.2-1.2,0.4-1.8,0.4c-2.2,0-3.3-0.5-3.3-1.6
	c0-0.6,0.6-1.6,1.7-2.8l1.3-1.4l-0.5,0c-0.2,0-0.5,0.1-0.9,0.2c-0.7,0.3-1.1,0.4-1.3,0.4c-0.2,0-0.3,0-0.5-0.1
	c-0.1-0.1-0.2-0.2-0.2-0.4c0-0.4,0.4-0.6,1.3-0.6c0.1,0,0.2,0,0.4,0c0.2,0,0.3,0,0.4,0c0.7,0,1.4-0.1,1.9-0.4
	c0.5-0.3,0.9-0.7,1.3-1.3c0.1-0.2,0.4-0.8,0.9-1.8c0.1,0,0.3,0.1,0.4,0.3C211.8,101,211.9,101.1,211.9,101.3"/>
<path class="st1" d="M216.8,99.7c0,0.2-0.1,0.8-0.3,1.6c-0.2,0.8-0.4,1.3-0.6,1.4c-0.1,0-0.4,0.1-0.8,0.1l0-0.2
	c0-0.3,0.1-0.8,0.3-1.7c0.2-0.9,0.4-1.4,0.5-1.6c0.1-0.1,0.3-0.2,0.4-0.2C216.6,99,216.8,99.2,216.8,99.7"/>
<path class="st1" d="M226.4,103.1c-0.1,0.5-0.5,0.8-1.1,1c-0.4,0.1-1.1,0.3-2.1,0.5c-0.8,0.2-1.5,0.5-1.8,0.9c1.2,0.3,2,0.5,2.3,0.6
	c1.1,0.4,1.6,0.9,1.6,1.4c0,0.8-0.6,1.5-1.9,2.2c-1.1,0.6-2.1,0.9-3,0.9c-0.7,0-1.3-0.3-1.9-0.8c-0.6-0.6-0.9-1.2-0.9-1.9l0-0.2
	c0.3,0.1,0.7,0.5,1.2,1.2c0.5,0.7,0.9,1,1.3,1c0.6,0,1.5-0.2,2.5-0.7c1.2-0.5,1.8-1,1.8-1.6c0-0.4-0.3-0.7-1-0.9
	c0,0-0.8-0.2-2.2-0.6c-0.8-0.2-1.3-0.5-1.6-0.7c0.3-0.3,0.9-0.7,1.8-1c0.6-0.2,1.4-0.5,2.5-0.9c1.2-0.4,1.9-0.6,2.1-0.7
	C226.1,103,226.2,103.1,226.4,103.1"/>
<path class="st1" d="M242.1,101.3c0,0.2-0.1,0.5-0.3,0.8c-0.1,0.1-0.4,0.5-0.9,1.3c0.2,0.2,0.5,0.3,0.8,0.5c0.3,0.2,0.4,0.5,0.4,0.8
	l0,0.2c0,0-0.2-0.1-0.7-0.2c-0.3-0.1-0.5-0.1-0.7-0.1c-0.5,0-1.3,0.6-2.4,1.7c-1,1.1-1.5,2-1.5,2.6c0,0.5,0.4,0.8,1.3,1.1
	c0.6,0.1,1.2,0.2,1.9,0.2c0.3,0,0.5,0,0.8-0.1c0,0.1,0,0.1,0.1,0.3c-0.6,0.2-1.2,0.4-1.9,0.4c-2.2,0-3.3-0.5-3.3-1.6
	c0-0.6,0.6-1.6,1.7-2.8l1.3-1.4l-0.5,0c-0.2,0-0.5,0.1-0.9,0.2c-0.7,0.3-1.2,0.4-1.3,0.4c-0.2,0-0.3,0-0.5-0.1
	c-0.1-0.1-0.2-0.2-0.2-0.4c0-0.4,0.4-0.6,1.3-0.6c0.1,0,0.2,0,0.4,0c0.2,0,0.3,0,0.4,0c0.7,0,1.4-0.1,1.9-0.4
	c0.5-0.3,0.9-0.7,1.3-1.3c0.1-0.2,0.4-0.8,0.9-1.8c0.1,0,0.3,0.1,0.4,0.3C242,101,242.1,101.1,242.1,101.3"/>
<path class="st1" d="M251.3,110.6L251.3,110.6L251.3,110.6L251.3,110.6L251.3,110.6v-0.2h0.1v0h0v0h0L251.3,110.6L251.3,110.6z
	 M250.8,105.3c0-0.4-0.3-0.5-0.9-0.5c-0.9,0-1.6,0.2-2.2,0.6c-0.6,0.4-1.1,0.9-1.7,1.5c-0.8,0.8-1.1,1.4-1.1,1.9
	c0,0.3,0.1,0.5,0.4,0.6c0.2,0.1,0.5,0.2,0.8,0.2c0.9,0,1.6-0.3,2.2-0.9c0.1-0.2,0.6-0.7,1.3-1.7c0.4-0.6,0.8-0.9,1.2-0.9
	C250.8,105.8,250.8,105.6,250.8,105.3 M251.4,110.3c-0.2,0.5-0.5,0.7-0.8,0.7c-0.3,0-0.7-0.3-1.1-0.7c-0.3-0.4-0.6-0.8-0.8-1.2
	c-0.8,0.4-1.4,0.7-1.7,0.8c-0.7,0.3-1.3,0.4-1.8,0.4c-0.8,0-1.2-0.4-1.2-1.2c0-1.3,0.7-2.4,2.1-3.4c0.5-0.3,1.1-0.7,1.8-1.1
	c0.9-0.4,1.6-0.7,2-0.7c0.3,0,0.5,0.1,0.8,0.4c0.2,0.3,0.4,0.6,0.4,0.8c0,0.5-0.2,1.3-0.6,2.1c-0.4,0.9-0.6,1.4-0.6,1.5
	c0,0.5,0.1,0.8,0.2,1C250.1,110,250.6,110.2,251.4,110.3"/>
<path class="st1" d="M258.6,100.6c0,0.1-0.3,0.7-1,1.9l-1.9,3.5c-0.8,1.5-1.2,2.3-1.3,2.6l-0.3,0.9c-0.2,0.4-0.4,0.6-0.6,0.6
	c-0.1,0-0.3,0-0.5-0.1l-0.2-0.3c0.1-0.5,0.5-1.3,1.1-2.3l1.9-3.1c0.7-1.2,1.2-2.2,1.4-3c0-0.2,0.1-0.5,0.3-0.9
	c0.1-0.3,0.3-0.5,0.6-0.7c0.2,0,0.3,0.1,0.4,0.3C258.5,100.3,258.6,100.5,258.6,100.6"/>
<path class="st1" d="M267.8,103.5c0,0.6-0.4,1-1.1,1.5c-0.4,0.3-1.1,0.6-2.1,0.9c-1,0.4-1.6,0.7-2,0.9l-0.2,0.3
	c0.1,0.4,0.4,1.2,0.9,2.5c0.5,1.2,0.8,1.9,0.8,2c0,0.4-0.3,0.7-0.8,0.9c-0.1-0.5-0.4-1.3-1-2.5c-0.6-1.3-1.1-2-1.4-2.1
	c-0.2,0.8-0.3,1.3-0.4,1.6c-0.1,0.4-0.5,0.6-1.3,0.6v-0.3c0-0.2,0.4-1.1,1.3-2.7c0.4-0.7,1.2-2.2,2.5-4.6c0.1-0.2,0.4-0.8,0.8-1.7
	c0.3-0.7,0.6-1.3,0.9-1.7c0-0.1,0.1-0.1,0.3-0.2c0.2,0.1,0.3,0.2,0.3,0.2c0.1,0,0.1,0.2,0.2,0.3c-0.1,0.5-0.4,1.1-0.9,1.9
	c-0.3,0.4-0.8,1.2-1.5,2.3c-0.5,0.9-0.9,1.7-1,2.5c0.5-0.1,1.1-0.3,1.7-0.6c0.6-0.3,1.1-0.5,1.7-0.8c0.7-0.5,1.4-1,2.1-1.5
	C267.7,103.1,267.8,103.3,267.8,103.5"/>
<path class="st1" d="M275.4,99.7c-0.6,1-1,1.9-1.2,2.6c-0.3,0.9-0.5,1.8-0.5,2.8c0,0.4-0.1,0.7-0.3,0.9c-0.2,0.3-0.5,0.4-0.8,0.4
	l-0.4,0l0-0.5c0-0.3,0.4-1.7,1.3-4.5c0.1-0.2,0.2-0.6,0.3-1c0.1-0.4,0.3-0.7,0.5-0.8c0.1,0,0.2-0.1,0.4-0.1
	C274.9,99.6,275.1,99.6,275.4,99.7 M272.1,108.8c0,0.2-0.1,0.4-0.1,0.6c-0.1,0.4-0.4,0.6-1,0.6c-0.5,0-0.7-0.2-0.7-0.7
	c0-0.4,0.3-0.5,0.9-0.5C271.6,108.7,271.8,108.7,272.1,108.8"/>
<path class="st1" d="M233,83.3h-22.7c-0.6,0-1.1,0.2-1.5,0.6c-0.4,0.4-0.6,0.9-0.6,1.5c0,0.6,0.2,1.1,0.6,1.6
	c0.4,0.4,0.9,0.6,1.5,0.6H233c0.6,0,1.1-0.2,1.6-0.6c0.4-0.4,0.6-0.9,0.6-1.6c0-0.6-0.2-1.1-0.6-1.5C234.1,83.5,233.6,83.3,233,83.3
	"/>
<path class="st1" d="M234.9,91h-25.1c-1.1,0-1.9-0.2-2.6-0.6c-0.7-0.4-1.2-0.8-1.5-1.4c-0.4-0.5-0.6-1.1-0.8-1.8
	c-0.1-0.7-0.2-1.2-0.2-1.8c0-0.5,0.1-1.1,0.2-1.8c0.1-0.7,0.4-1.3,0.8-1.8c0.4-0.5,0.9-1,1.5-1.4c0.6-0.4,1.5-0.6,2.6-0.6h23.8
	c-0.8-0.4-1.4-1.2-1.4-2.2c0-0.9,0.5-1.7,1.3-2.2h-24.8c-1.3,0-2.5,0.3-3.5,0.9c-1,0.6-1.9,1.4-2.6,2.3c-0.7,1-1.3,2-1.7,3.2
	c-0.4,1.2-0.6,2.3-0.6,3.5c0,1.1,0.2,2.3,0.5,3.5c0.4,1.2,0.9,2.3,1.6,3.2c0.7,1,1.5,1.7,2.5,2.4c1,0.6,2.1,0.9,3.3,0.9h26.5
	c0.6,0,1.1-0.2,1.5-0.6c0.4-0.4,0.6-0.9,0.6-1.5c0-0.6-0.2-1.1-0.6-1.5C236,91.2,235.5,91,234.9,91"/>
<path class="st2" d="M234.4,76.7c0.2-0.2,0.4-0.3,0.7-0.3c0.3,0,0.5,0.1,0.7,0.3c0.2,0.2,0.3,0.4,0.3,0.7s-0.1,0.5-0.3,0.7
	c-0.2,0.2-0.4,0.3-0.7,0.3c-0.3,0-0.5-0.1-0.7-0.3c-0.2-0.2-0.3-0.4-0.3-0.7C234.1,77.2,234.2,76.9,234.4,76.7 M235.1,79.1
	c0.5,0,0.9-0.2,1.2-0.5c0.3-0.3,0.5-0.7,0.5-1.2s-0.2-0.9-0.5-1.2c-0.3-0.3-0.7-0.5-1.2-0.5s-0.9,0.2-1.2,0.5
	c-0.3,0.3-0.5,0.7-0.5,1.2s0.2,0.9,0.5,1.2C234.2,79,234.6,79.1,235.1,79.1"/>
<path class="st2" d="M234.7,78.3c0.1,0,0.2-0.1,0.2-0.2v-0.9c0-0.1,0-0.1,0.1-0.2c0.1-0.1,0.1-0.1,0.2-0.1c0.1,0,0.1,0,0.2,0.1
	c0.1,0.1,0.1,0.1,0.1,0.2c0,0.1,0,0.1-0.1,0.2c-0.1,0.1-0.1,0.1-0.2,0.1c0,0-0.1,0-0.1,0c0,0,0,0.1,0,0.1v0.1c0,0.1,0,0.3,0.1,0.4
	s0.2,0.1,0.4,0.1c0.1,0,0.2-0.1,0.2-0.2c0-0.1-0.1-0.2-0.2-0.2c-0.1,0-0.2-0.1-0.2-0.2c0.1,0,0.2-0.1,0.3-0.2
	c0.1-0.1,0.1-0.2,0.1-0.4c0-0.2-0.1-0.3-0.2-0.4c-0.1-0.1-0.3-0.2-0.4-0.2c-0.2,0-0.3,0.1-0.4,0.2c-0.1,0.1-0.2,0.3-0.2,0.4v0.9
	C234.5,78.2,234.6,78.3,234.7,78.3"/>
<path class="st1" d="M234.5,77.2c0-0.2,0.1-0.3,0.2-0.4c0.1-0.1,0.3-0.2,0.4-0.2c0.2,0,0.3,0.1,0.4,0.2c0.1,0.1,0.2,0.3,0.2,0.4
	c0,0.1,0,0.3-0.1,0.4c-0.1,0.1-0.2,0.2-0.3,0.2c0,0.1,0.1,0.2,0.2,0.2c0.1,0,0.2,0.1,0.2,0.2c0,0.1-0.1,0.2-0.2,0.2
	c-0.1,0-0.3-0.1-0.4-0.1c-0.1-0.1-0.1-0.2-0.1-0.4v-0.1c0,0,0-0.1,0-0.1c0,0,0.1,0,0.1,0c0.1,0,0.1,0,0.2-0.1
	c0.1-0.1,0.1-0.1,0.1-0.2c0-0.1,0-0.1-0.1-0.2c-0.1-0.1-0.1-0.1-0.2-0.1c-0.1,0-0.1,0-0.2,0.1c-0.1,0.1-0.1,0.1-0.1,0.2v0.9
	c0,0.1-0.1,0.2-0.2,0.2c-0.1,0-0.2-0.1-0.2-0.2V77.2z M235.1,78.5c0.3,0,0.5-0.1,0.7-0.3c0.2-0.2,0.3-0.4,0.3-0.7
	c0-0.3-0.1-0.5-0.3-0.7c-0.2-0.2-0.4-0.3-0.7-0.3c-0.3,0-0.5,0.1-0.7,0.3c-0.2,0.2-0.3,0.4-0.3,0.7c0,0.3,0.1,0.5,0.3,0.7
	C234.6,78.4,234.8,78.5,235.1,78.5"/>
<path class="st1" d="M233.9,76.3c0.3-0.3,0.7-0.5,1.2-0.5c0.5,0,0.9,0.2,1.2,0.5c0.3,0.3,0.5,0.7,0.5,1.2c0,0.5-0.2,0.9-0.5,1.2
	c-0.3,0.3-0.7,0.5-1.2,0.5c-0.5,0-0.9-0.2-1.2-0.5c-0.3-0.3-0.5-0.7-0.5-1.2C233.4,77,233.6,76.6,233.9,76.3 M233.7,79.3
	c0.4,0.4,0.9,0.6,1.4,0.6c0.6,0,1-0.2,1.4-0.6c0.4-0.4,0.6-0.9,0.6-1.4c0-0.1,0-0.2,0-0.2c0-0.1,0-0.2,0-0.2c0-0.6-0.2-1-0.6-1.4
	c-0.4-0.4-0.9-0.6-1.4-0.6c-0.6,0-1,0.2-1.4,0.6c-0.4,0.4-0.6,0.9-0.6,1.4c0,0.1,0,0.2,0,0.2c0,0.1,0,0.2,0,0.2
	C233.1,78.5,233.3,79,233.7,79.3"/>
</svg>
